<?xml version="1.0" encoding="utf-8" standalone="no"?>
<!DOCTYPE svg PUBLIC "-//W3C//DTD SVG 1.1//EN"
  "http://www.w3.org/Graphics/SVG/1.1/DTD/svg11.dtd">
<svg xmlns:xlink="http://www.w3.org/1999/xlink" width="432pt" height="432pt" viewBox="0 0 432 432" xmlns="http://www.w3.org/2000/svg" version="1.1">
 <metadata>
  <rdf:RDF xmlns:dc="http://purl.org/dc/elements/1.1/" xmlns:cc="http://creativecommons.org/ns#" xmlns:rdf="http://www.w3.org/1999/02/22-rdf-syntax-ns#">
   <cc:Work>
    <dc:type rdf:resource="http://purl.org/dc/dcmitype/StillImage"/>
    <dc:date>2025-04-02T16:45:02.464654</dc:date>
    <dc:format>image/svg+xml</dc:format>
    <dc:creator>
     <cc:Agent>
      <dc:title>Matplotlib v3.10.1, https://matplotlib.org/</dc:title>
     </cc:Agent>
    </dc:creator>
   </cc:Work>
  </rdf:RDF>
 </metadata>
 <defs>
  <style type="text/css">*{stroke-linejoin: round; stroke-linecap: butt}</style>
 </defs>
 <g id="figure_1">
  <g id="patch_1">
   <path d="M 0 432 
L 432 432 
L 432 0 
L 0 0 
z
" style="fill: #ffffff"/>
  </g>
  <g id="patch_2">
   <path d="M 55.08 384.48 
L 387.72 384.48 
L 387.72 51.84 
L 55.08 51.84 
z
" style="fill: #ffffff"/>
  </g>
  <g id="pane3d_1">
   <g id="patch_3">
    <path d="M 80.196614 302.461636 
L 190.045206 210.384369 
L 188.518205 77.592489 
L 73.412792 161.591176 
" style="fill: none; opacity: 0.5; stroke: #f2f2f2; stroke-linejoin: miter"/>
   </g>
  </g>
  <g id="pane3d_2">
   <g id="patch_4">
    <path d="M 190.045206 210.384369 
L 366.313001 261.618458 
L 372.603377 124.252714 
L 188.518205 77.592489 
" style="fill: none; opacity: 0.5; stroke: #e6e6e6; stroke-linejoin: miter"/>
   </g>
  </g>
  <g id="pane3d_3">
   <g id="patch_5">
    <path d="M 80.196614 302.461636 
L 267.049086 363.487653 
L 366.313001 261.618458 
L 190.045206 210.384369 
" style="fill: none; opacity: 0.5; stroke: #ececec; stroke-linejoin: miter"/>
   </g>
  </g>
  <g id="grid3d_1">
   <g id="Line3DCollection_1">
    <path d="M 84.239759 303.782128 
L 193.875828 211.497779 
L 192.51046 78.604409 
" style="fill: none; stroke: #b0b0b0; stroke-width: 0.8"/>
    <path d="M 103.533646 310.083511 
L 212.145458 216.808039 
L 211.556009 83.4319 
" style="fill: none; stroke: #b0b0b0; stroke-width: 0.8"/>
    <path d="M 123.044264 316.455679 
L 230.603354 222.173021 
L 230.80628 88.311283 
" style="fill: none; stroke: #b0b0b0; stroke-width: 0.8"/>
    <path d="M 142.775286 322.899831 
L 249.252442 227.593575 
L 250.264591 93.243397 
" style="fill: none; stroke: #b0b0b0; stroke-width: 0.8"/>
    <path d="M 162.730469 329.417193 
L 268.095707 233.070568 
L 269.934332 98.229103 
" style="fill: none; stroke: #b0b0b0; stroke-width: 0.8"/>
    <path d="M 182.913654 336.009021 
L 287.136199 238.604887 
L 289.818968 103.269279 
" style="fill: none; stroke: #b0b0b0; stroke-width: 0.8"/>
    <path d="M 203.32877 342.676598 
L 306.37703 244.197437 
L 309.922042 108.364822 
" style="fill: none; stroke: #b0b0b0; stroke-width: 0.8"/>
    <path d="M 223.97984 349.421238 
L 325.821378 249.849142 
L 330.247171 113.51665 
" style="fill: none; stroke: #b0b0b0; stroke-width: 0.8"/>
    <path d="M 244.870978 356.244283 
L 345.472491 255.560944 
L 350.798055 118.7257 
" style="fill: none; stroke: #b0b0b0; stroke-width: 0.8"/>
    <path d="M 266.006393 363.14711 
L 365.333682 261.333809 
L 371.578477 123.992931 
" style="fill: none; stroke: #b0b0b0; stroke-width: 0.8"/>
   </g>
  </g>
  <g id="grid3d_2">
   <g id="Line3DCollection_2">
    <path d="M 87.79564 151.095229 
L 93.87706 290.994415 
L 279.459188 350.751836 
" style="fill: none; stroke: #b0b0b0; stroke-width: 0.8"/>
    <path d="M 107.396631 136.791318 
L 112.541701 275.349343 
L 296.368629 333.39859 
" style="fill: none; stroke: #b0b0b0; stroke-width: 0.8"/>
    <path d="M 126.431125 122.900811 
L 130.690004 260.137075 
L 312.785956 316.550373 
" style="fill: none; stroke: #b0b0b0; stroke-width: 0.8"/>
    <path d="M 144.923332 109.406041 
L 148.343104 245.339897 
L 328.732347 300.185454 
" style="fill: none; stroke: #b0b0b0; stroke-width: 0.8"/>
    <path d="M 162.896101 96.290333 
L 165.520997 230.941047 
L 344.227776 284.283331 
" style="fill: none; stroke: #b0b0b0; stroke-width: 0.8"/>
    <path d="M 180.371013 83.537938 
L 182.242615 216.924655 
L 359.291107 268.824648 
" style="fill: none; stroke: #b0b0b0; stroke-width: 0.8"/>
   </g>
  </g>
  <g id="grid3d_3">
   <g id="Line3DCollection_3">
    <path d="M 367.006371 246.477025 
L 189.876572 195.719583 
L 79.449974 286.957169 
" style="fill: none; stroke: #b0b0b0; stroke-width: 0.8"/>
    <path d="M 368.07843 223.065991 
L 189.615993 173.05896 
L 78.295005 262.973486 
" style="fill: none; stroke: #b0b0b0; stroke-width: 0.8"/>
    <path d="M 369.166903 199.296514 
L 189.351616 150.068069 
L 77.121673 238.608493 
" style="fill: none; stroke: #b0b0b0; stroke-width: 0.8"/>
    <path d="M 370.272171 175.160299 
L 189.083358 126.739635 
L 75.929537 213.853021 
" style="fill: none; stroke: #b0b0b0; stroke-width: 0.8"/>
    <path d="M 371.394624 150.648792 
L 188.811132 103.066169 
L 74.718142 188.697609 
" style="fill: none; stroke: #b0b0b0; stroke-width: 0.8"/>
    <path d="M 372.534667 125.753172 
L 188.53485 79.039961 
L 73.487016 163.132485 
" style="fill: none; stroke: #b0b0b0; stroke-width: 0.8"/>
   </g>
  </g>
  <g id="axis3d_1">
   <g id="line2d_1">
    <path d="M 80.196614 302.461636 
L 267.049086 363.487653 
" style="fill: none; stroke: #000000; stroke-width: 0.8; stroke-linecap: square"/>
   </g>
   <g id="xtick_1">
    <g id="line2d_2">
     <path d="M 85.194301 302.978658 
L 82.326589 305.392508 
" style="fill: none; stroke: #000000; stroke-width: 0.8; stroke-linecap: square"/>
    </g>
    <g id="text_1">
     <!-- −20 -->
     <g transform="translate(66.158246 327.039477) scale(0.1 -0.1)">
      <defs>
       <path id="DejaVuSans-2212" d="M 678 2272 
L 4684 2272 
L 4684 1741 
L 678 1741 
L 678 2272 
z
" transform="scale(0.015625)"/>
       <path id="DejaVuSans-32" d="M 1228 531 
L 3431 531 
L 3431 0 
L 469 0 
L 469 531 
Q 828 903 1448 1529 
Q 2069 2156 2228 2338 
Q 2531 2678 2651 2914 
Q 2772 3150 2772 3378 
Q 2772 3750 2511 3984 
Q 2250 4219 1831 4219 
Q 1534 4219 1204 4116 
Q 875 4013 500 3803 
L 500 4441 
Q 881 4594 1212 4672 
Q 1544 4750 1819 4750 
Q 2544 4750 2975 4387 
Q 3406 4025 3406 3419 
Q 3406 3131 3298 2873 
Q 3191 2616 2906 2266 
Q 2828 2175 2409 1742 
Q 1991 1309 1228 531 
z
" transform="scale(0.015625)"/>
       <path id="DejaVuSans-30" d="M 2034 4250 
Q 1547 4250 1301 3770 
Q 1056 3291 1056 2328 
Q 1056 1369 1301 889 
Q 1547 409 2034 409 
Q 2525 409 2770 889 
Q 3016 1369 3016 2328 
Q 3016 3291 2770 3770 
Q 2525 4250 2034 4250 
z
M 2034 4750 
Q 2819 4750 3233 4129 
Q 3647 3509 3647 2328 
Q 3647 1150 3233 529 
Q 2819 -91 2034 -91 
Q 1250 -91 836 529 
Q 422 1150 422 2328 
Q 422 3509 836 4129 
Q 1250 4750 2034 4750 
z
" transform="scale(0.015625)"/>
      </defs>
      <use xlink:href="#DejaVuSans-2212"/>
      <use xlink:href="#DejaVuSans-32" transform="translate(83.789062 0)"/>
      <use xlink:href="#DejaVuSans-30" transform="translate(147.412109 0)"/>
     </g>
    </g>
   </g>
   <g id="xtick_2">
    <g id="line2d_3">
     <path d="M 104.479698 309.271044 
L 101.637467 311.711943 
" style="fill: none; stroke: #000000; stroke-width: 0.8; stroke-linecap: square"/>
    </g>
    <g id="text_2">
     <!-- −15 -->
     <g transform="translate(85.467488 333.44737) scale(0.1 -0.1)">
      <defs>
       <path id="DejaVuSans-31" d="M 794 531 
L 1825 531 
L 1825 4091 
L 703 3866 
L 703 4441 
L 1819 4666 
L 2450 4666 
L 2450 531 
L 3481 531 
L 3481 0 
L 794 0 
L 794 531 
z
" transform="scale(0.015625)"/>
       <path id="DejaVuSans-35" d="M 691 4666 
L 3169 4666 
L 3169 4134 
L 1269 4134 
L 1269 2991 
Q 1406 3038 1543 3061 
Q 1681 3084 1819 3084 
Q 2600 3084 3056 2656 
Q 3513 2228 3513 1497 
Q 3513 744 3044 326 
Q 2575 -91 1722 -91 
Q 1428 -91 1123 -41 
Q 819 9 494 109 
L 494 744 
Q 775 591 1075 516 
Q 1375 441 1709 441 
Q 2250 441 2565 725 
Q 2881 1009 2881 1497 
Q 2881 1984 2565 2268 
Q 2250 2553 1709 2553 
Q 1456 2553 1204 2497 
Q 953 2441 691 2322 
L 691 4666 
z
" transform="scale(0.015625)"/>
      </defs>
      <use xlink:href="#DejaVuSans-2212"/>
      <use xlink:href="#DejaVuSans-31" transform="translate(83.789062 0)"/>
      <use xlink:href="#DejaVuSans-35" transform="translate(147.412109 0)"/>
     </g>
    </g>
   </g>
   <g id="xtick_3">
    <g id="line2d_4">
     <path d="M 123.981575 315.634063 
L 121.165582 318.102468 
" style="fill: none; stroke: #000000; stroke-width: 0.8; stroke-linecap: square"/>
    </g>
    <g id="text_3">
     <!-- −10 -->
     <g transform="translate(104.994285 339.92746) scale(0.1 -0.1)">
      <use xlink:href="#DejaVuSans-2212"/>
      <use xlink:href="#DejaVuSans-31" transform="translate(83.789062 0)"/>
      <use xlink:href="#DejaVuSans-30" transform="translate(147.412109 0)"/>
     </g>
    </g>
   </g>
   <g id="xtick_4">
    <g id="line2d_5">
     <path d="M 143.703599 322.068911 
L 140.914619 324.565289 
" style="fill: none; stroke: #000000; stroke-width: 0.8; stroke-linecap: square"/>
    </g>
    <g id="text_4">
     <!-- −5 -->
     <g transform="translate(127.923584 346.480973) scale(0.1 -0.1)">
      <use xlink:href="#DejaVuSans-2212"/>
      <use xlink:href="#DejaVuSans-35" transform="translate(83.789062 0)"/>
     </g>
    </g>
   </g>
   <g id="xtick_5">
    <g id="line2d_6">
     <path d="M 163.649517 328.57681 
L 160.888348 331.10164 
" style="fill: none; stroke: #000000; stroke-width: 0.8; stroke-linecap: square"/>
    </g>
    <g id="text_5">
     <!-- 0 -->
     <g transform="translate(152.086511 353.109166) scale(0.1 -0.1)">
      <use xlink:href="#DejaVuSans-30"/>
     </g>
    </g>
   </g>
   <g id="xtick_6">
    <g id="line2d_7">
     <path d="M 183.823164 335.159012 
L 181.090626 337.712783 
" style="fill: none; stroke: #000000; stroke-width: 0.8; stroke-linecap: square"/>
    </g>
    <g id="text_6">
     <!-- 5 -->
     <g transform="translate(172.288497 359.813322) scale(0.1 -0.1)">
      <use xlink:href="#DejaVuSans-35"/>
     </g>
    </g>
   </g>
   <g id="xtick_7">
    <g id="line2d_8">
     <path d="M 204.228464 341.816797 
L 201.525399 344.40001 
" style="fill: none; stroke: #000000; stroke-width: 0.8; stroke-linecap: square"/>
    </g>
    <g id="text_7">
     <!-- 10 -->
     <g transform="translate(189.542094 366.594753) scale(0.1 -0.1)">
      <use xlink:href="#DejaVuSans-31"/>
      <use xlink:href="#DejaVuSans-30" transform="translate(63.623047 0)"/>
     </g>
    </g>
   </g>
   <g id="xtick_8">
    <g id="line2d_9">
     <path d="M 224.869428 348.551474 
L 222.196702 351.16464 
" style="fill: none; stroke: #000000; stroke-width: 0.8; stroke-linecap: square"/>
    </g>
    <g id="text_8">
     <!-- 15 -->
     <g transform="translate(210.21385 373.454805) scale(0.1 -0.1)">
      <use xlink:href="#DejaVuSans-31"/>
      <use xlink:href="#DejaVuSans-35" transform="translate(63.623047 0)"/>
     </g>
    </g>
   </g>
   <g id="xtick_9">
    <g id="line2d_10">
     <path d="M 245.750163 355.364383 
L 243.108667 358.008027 
" style="fill: none; stroke: #000000; stroke-width: 0.8; stroke-linecap: square"/>
    </g>
    <g id="text_9">
     <!-- 20 -->
     <g transform="translate(231.12666 380.394852) scale(0.1 -0.1)">
      <use xlink:href="#DejaVuSans-32"/>
      <use xlink:href="#DejaVuSans-30" transform="translate(63.623047 0)"/>
     </g>
    </g>
   </g>
   <g id="xtick_10">
    <g id="line2d_11">
     <path d="M 266.874871 362.256895 
L 264.265522 364.931552 
" style="fill: none; stroke: #000000; stroke-width: 0.8; stroke-linecap: square"/>
    </g>
    <g id="text_10">
     <!-- 25 -->
     <g transform="translate(252.284765 387.416302) scale(0.1 -0.1)">
      <use xlink:href="#DejaVuSans-32"/>
      <use xlink:href="#DejaVuSans-35" transform="translate(63.623047 0)"/>
     </g>
    </g>
   </g>
   <g id="text_11">
    <!-- x -->
    <g transform="translate(151.936038 370.143148) scale(0.1 -0.1)">
     <defs>
      <path id="DejaVuSans-78" d="M 3513 3500 
L 2247 1797 
L 3578 0 
L 2900 0 
L 1881 1375 
L 863 0 
L 184 0 
L 1544 1831 
L 300 3500 
L 978 3500 
L 1906 2253 
L 2834 3500 
L 3513 3500 
z
" transform="scale(0.015625)"/>
     </defs>
     <use xlink:href="#DejaVuSans-78"/>
    </g>
   </g>
  </g>
  <g id="axis3d_2">
   <g id="line2d_12">
    <path d="M 366.313001 261.618458 
L 267.049086 363.487653 
" style="fill: none; stroke: #000000; stroke-width: 0.8; stroke-linecap: square"/>
   </g>
   <g id="xtick_11">
    <g id="line2d_13">
     <path d="M 277.895664 350.248381 
L 282.590261 351.760041 
" style="fill: none; stroke: #000000; stroke-width: 0.8; stroke-linecap: square"/>
    </g>
    <g id="text_12">
     <!-- −20 -->
     <g transform="translate(281.726521 371.704576) scale(0.1 -0.1)">
      <use xlink:href="#DejaVuSans-2212"/>
      <use xlink:href="#DejaVuSans-32" transform="translate(83.789062 0)"/>
      <use xlink:href="#DejaVuSans-30" transform="translate(147.412109 0)"/>
     </g>
    </g>
   </g>
   <g id="xtick_12">
    <g id="line2d_14">
     <path d="M 294.821044 332.909891 
L 299.467721 334.377228 
" style="fill: none; stroke: #000000; stroke-width: 0.8; stroke-linecap: square"/>
    </g>
    <g id="text_13">
     <!-- −10 -->
     <g transform="translate(298.454514 354.145896) scale(0.1 -0.1)">
      <use xlink:href="#DejaVuSans-2212"/>
      <use xlink:href="#DejaVuSans-31" transform="translate(83.789062 0)"/>
      <use xlink:href="#DejaVuSans-30" transform="translate(147.412109 0)"/>
     </g>
    </g>
   </g>
   <g id="xtick_13">
    <g id="line2d_15">
     <path d="M 311.254054 316.07579 
L 315.853589 317.500725 
" style="fill: none; stroke: #000000; stroke-width: 0.8; stroke-linecap: square"/>
    </g>
    <g id="text_14">
     <!-- 0 -->
     <g transform="translate(322.066544 337.098458) scale(0.1 -0.1)">
      <use xlink:href="#DejaVuSans-30"/>
     </g>
    </g>
   </g>
   <g id="xtick_14">
    <g id="line2d_16">
     <path d="M 327.215869 299.724384 
L 331.769036 301.108729 
" style="fill: none; stroke: #000000; stroke-width: 0.8; stroke-linecap: square"/>
    </g>
    <g id="text_15">
     <!-- 10 -->
     <g transform="translate(334.66014 320.540257) scale(0.1 -0.1)">
      <use xlink:href="#DejaVuSans-31"/>
      <use xlink:href="#DejaVuSans-30" transform="translate(63.623047 0)"/>
     </g>
    </g>
   </g>
   <g id="xtick_15">
    <g id="line2d_17">
     <path d="M 342.72647 283.835206 
L 347.234034 285.180671 
" style="fill: none; stroke: #000000; stroke-width: 0.8; stroke-linecap: square"/>
    </g>
    <g id="text_16">
     <!-- 20 -->
     <g transform="translate(349.988676 304.450529) scale(0.1 -0.1)">
      <use xlink:href="#DejaVuSans-32"/>
      <use xlink:href="#DejaVuSans-30" transform="translate(63.623047 0)"/>
     </g>
    </g>
   </g>
   <g id="xtick_16">
    <g id="line2d_18">
     <path d="M 357.804722 268.388929 
L 362.267438 269.697129 
" style="fill: none; stroke: #000000; stroke-width: 0.8; stroke-linecap: square"/>
    </g>
    <g id="text_17">
     <!-- 30 -->
     <g transform="translate(364.889578 288.80967) scale(0.1 -0.1)">
      <defs>
       <path id="DejaVuSans-33" d="M 2597 2516 
Q 3050 2419 3304 2112 
Q 3559 1806 3559 1356 
Q 3559 666 3084 287 
Q 2609 -91 1734 -91 
Q 1441 -91 1130 -33 
Q 819 25 488 141 
L 488 750 
Q 750 597 1062 519 
Q 1375 441 1716 441 
Q 2309 441 2620 675 
Q 2931 909 2931 1356 
Q 2931 1769 2642 2001 
Q 2353 2234 1838 2234 
L 1294 2234 
L 1294 2753 
L 1863 2753 
Q 2328 2753 2575 2939 
Q 2822 3125 2822 3475 
Q 2822 3834 2567 4026 
Q 2313 4219 1838 4219 
Q 1578 4219 1281 4162 
Q 984 4106 628 3988 
L 628 4550 
Q 988 4650 1302 4700 
Q 1616 4750 1894 4750 
Q 2613 4750 3031 4423 
Q 3450 4097 3450 3541 
Q 3450 3153 3228 2886 
Q 3006 2619 2597 2516 
z
" transform="scale(0.015625)"/>
      </defs>
      <use xlink:href="#DejaVuSans-33"/>
      <use xlink:href="#DejaVuSans-30" transform="translate(63.623047 0)"/>
     </g>
    </g>
   </g>
   <g id="text_18">
    <!-- y -->
    <g transform="translate(342.907544 341.035949) scale(0.1 -0.1)">
     <defs>
      <path id="DejaVuSans-79" d="M 2059 -325 
Q 1816 -950 1584 -1140 
Q 1353 -1331 966 -1331 
L 506 -1331 
L 506 -850 
L 844 -850 
Q 1081 -850 1212 -737 
Q 1344 -625 1503 -206 
L 1606 56 
L 191 3500 
L 800 3500 
L 1894 763 
L 2988 3500 
L 3597 3500 
L 2059 -325 
z
" transform="scale(0.015625)"/>
     </defs>
     <use xlink:href="#DejaVuSans-79"/>
    </g>
   </g>
  </g>
  <g id="axis3d_3">
   <g id="line2d_19">
    <path d="M 366.313001 261.618458 
L 372.603377 124.252714 
" style="fill: none; stroke: #000000; stroke-width: 0.8; stroke-linecap: square"/>
   </g>
   <g id="xtick_17">
    <g id="line2d_20">
     <path d="M 365.519421 246.050931 
L 369.983825 247.330229 
" style="fill: none; stroke: #000000; stroke-width: 0.8; stroke-linecap: square"/>
    </g>
    <g id="text_19">
     <!-- 10 -->
     <g transform="translate(378.991734 251.49258) scale(0.1 -0.1)">
      <use xlink:href="#DejaVuSans-31"/>
      <use xlink:href="#DejaVuSans-30" transform="translate(63.623047 0)"/>
     </g>
    </g>
   </g>
   <g id="xtick_18">
    <g id="line2d_21">
     <path d="M 366.579758 222.646047 
L 371.079384 223.906889 
" style="fill: none; stroke: #000000; stroke-width: 0.8; stroke-linecap: square"/>
    </g>
    <g id="text_20">
     <!-- 20 -->
     <g transform="translate(380.200243 228.118863) scale(0.1 -0.1)">
      <use xlink:href="#DejaVuSans-32"/>
      <use xlink:href="#DejaVuSans-30" transform="translate(63.623047 0)"/>
     </g>
    </g>
   </g>
   <g id="xtick_19">
    <g id="line2d_22">
     <path d="M 367.656323 198.882959 
L 372.19173 200.124628 
" style="fill: none; stroke: #000000; stroke-width: 0.8; stroke-linecap: square"/>
    </g>
    <g id="text_21">
     <!-- 30 -->
     <g transform="translate(381.427209 204.38815) scale(0.1 -0.1)">
      <use xlink:href="#DejaVuSans-33"/>
      <use xlink:href="#DejaVuSans-30" transform="translate(63.623047 0)"/>
     </g>
    </g>
   </g>
   <g id="xtick_20">
    <g id="line2d_23">
     <path d="M 368.749492 174.75338 
L 373.321252 175.975132 
" style="fill: none; stroke: #000000; stroke-width: 0.8; stroke-linecap: square"/>
    </g>
    <g id="text_22">
     <!-- 40 -->
     <g transform="translate(382.67306 180.292201) scale(0.1 -0.1)">
      <defs>
       <path id="DejaVuSans-34" d="M 2419 4116 
L 825 1625 
L 2419 1625 
L 2419 4116 
z
M 2253 4666 
L 3047 4666 
L 3047 1625 
L 3713 1625 
L 3713 1100 
L 3047 1100 
L 3047 0 
L 2419 0 
L 2419 1100 
L 313 1100 
L 313 1709 
L 2253 4666 
z
" transform="scale(0.015625)"/>
      </defs>
      <use xlink:href="#DejaVuSans-34"/>
      <use xlink:href="#DejaVuSans-30" transform="translate(63.623047 0)"/>
     </g>
    </g>
   </g>
   <g id="xtick_21">
    <g id="line2d_24">
     <path d="M 369.859651 150.248767 
L 374.468352 151.449829 
" style="fill: none; stroke: #000000; stroke-width: 0.8; stroke-linecap: square"/>
    </g>
    <g id="text_23">
     <!-- 50 -->
     <g transform="translate(383.938235 155.822518) scale(0.1 -0.1)">
      <use xlink:href="#DejaVuSans-35"/>
      <use xlink:href="#DejaVuSans-30" transform="translate(63.623047 0)"/>
     </g>
    </g>
   </g>
   <g id="xtick_22">
    <g id="line2d_25">
     <path d="M 370.987201 125.360307 
L 375.633442 126.539878 
" style="fill: none; stroke: #000000; stroke-width: 0.8; stroke-linecap: square"/>
    </g>
    <g id="text_24">
     <!-- 60 -->
     <g transform="translate(385.223185 130.970337) scale(0.1 -0.1)">
      <defs>
       <path id="DejaVuSans-36" d="M 2113 2584 
Q 1688 2584 1439 2293 
Q 1191 2003 1191 1497 
Q 1191 994 1439 701 
Q 1688 409 2113 409 
Q 2538 409 2786 701 
Q 3034 994 3034 1497 
Q 3034 2003 2786 2293 
Q 2538 2584 2113 2584 
z
M 3366 4563 
L 3366 3988 
Q 3128 4100 2886 4159 
Q 2644 4219 2406 4219 
Q 1781 4219 1451 3797 
Q 1122 3375 1075 2522 
Q 1259 2794 1537 2939 
Q 1816 3084 2150 3084 
Q 2853 3084 3261 2657 
Q 3669 2231 3669 1497 
Q 3669 778 3244 343 
Q 2819 -91 2113 -91 
Q 1303 -91 875 529 
Q 447 1150 447 2328 
Q 447 3434 972 4092 
Q 1497 4750 2381 4750 
Q 2619 4750 2861 4703 
Q 3103 4656 3366 4563 
z
" transform="scale(0.015625)"/>
      </defs>
      <use xlink:href="#DejaVuSans-36"/>
      <use xlink:href="#DejaVuSans-30" transform="translate(63.623047 0)"/>
     </g>
    </g>
   </g>
   <g id="text_25">
    <!-- z -->
    <g transform="translate(407.194529 191.783148) scale(0.1 -0.1)">
     <defs>
      <path id="DejaVuSans-7a" d="M 353 3500 
L 3084 3500 
L 3084 2975 
L 922 459 
L 3084 459 
L 3084 0 
L 275 0 
L 275 525 
L 2438 3041 
L 353 3041 
L 353 3500 
z
" transform="scale(0.015625)"/>
     </defs>
     <use xlink:href="#DejaVuSans-7a"/>
    </g>
   </g>
  </g>
  <g id="axes_1">
   <g id="line2d_26">
    <path d="M 220.242263 277.986694 
L 221.433596 278.09432 
L 224.150851 277.996859 
L 227.451462 277.472197 
L 231.512666 276.459894 
L 236.534229 274.843596 
L 242.742577 272.442298 
L 246.369213 270.869374 
L 250.387043 268.995298 
L 254.827774 266.772139 
L 259.721263 264.144679 
L 265.092275 261.051014 
L 270.958348 257.42238 
L 277.324167 253.185458 
L 284.176989 248.264314 
L 291.477326 242.587445 
L 299.150346 236.093312 
L 307.074261 228.745091 
L 315.066156 220.546731 
L 322.868898 211.565763 
L 330.139509 201.960562 
L 336.442647 192.010809 
L 341.256137 182.142862 
L 343.995843 172.941815 
L 344.068885 165.131102 
L 340.957107 159.50567 
L 334.331913 156.802761 
L 324.17046 157.523353 
L 310.836909 161.748415 
L 295.07944 169.032619 
L 277.913893 178.444239 
L 243.551828 198.834167 
L 227.956235 207.702559 
L 213.987272 214.855357 
L 201.736439 220.135035 
L 191.130656 223.645389 
L 182.016385 225.625978 
L 174.218786 226.357755 
L 167.57577 226.104587 
L 161.951677 225.091688 
L 157.241345 223.499431 
L 153.365658 221.473079 
L 150.267398 219.130312 
L 147.90435 216.571729 
L 146.243931 213.888096 
L 145.257418 211.165351 
L 144.914732 208.486527 
L 145.181496 205.932538 
L 146.015586 203.579819 
L 147.365281 201.498421 
L 149.171284 199.748282 
L 151.365142 198.376425 
L 153.873476 197.41439 
L 156.61957 196.877701 
L 159.527995 196.765942 
L 162.525503 197.063235 
L 165.544759 197.741056 
L 168.526526 198.762155 
L 171.420354 200.082418 
L 174.185334 201.654755 
L 176.789853 203.432118 
L 179.21099 205.369528 
L 181.433685 207.425238 
L 183.449525 209.562457 
L 185.255636 211.749174 
L 186.85349 213.958993 
L 188.247835 216.169575 
L 189.445746 218.363749 
L 190.455837 220.527975 
L 191.287605 222.652133 
L 191.95074 224.728741 
L 192.454865 226.752888 
L 192.809049 228.721497 
L 193.021576 230.632396 
L 193.099898 232.484875 
L 193.050322 234.279172 
L 192.878039 236.015765 
L 192.587077 237.695539 
L 192.180263 239.319775 
L 191.659234 240.889071 
L 191.024344 242.404459 
L 190.274969 243.866587 
L 189.409278 245.275979 
L 188.424381 246.631973 
L 187.316407 247.933907 
L 186.080451 249.180099 
L 184.710887 250.368081 
L 183.201219 251.494252 
L 181.544219 252.553678 
L 179.732344 253.539906 
L 177.75757 254.444951 
L 175.611916 255.258655 
L 173.287552 255.968522 
L 170.777522 256.559284 
L 168.075885 257.012459 
L 165.178767 257.306308 
L 162.084964 257.415021 
L 158.797102 257.308544 
L 155.322758 256.952204 
L 151.676317 256.307137 
L 147.880112 255.330129 
L 143.967236 253.973966 
L 139.982421 252.189508 
L 135.98536 249.928172 
L 132.051255 247.143498 
L 128.27294 243.797184 
L 124.759901 239.864236 
L 121.638176 235.339752 
L 119.044637 230.246595 
L 117.123558 224.643417 
L 116.01281 218.629787 
L 115.837261 212.350909 
L 116.691654 205.993771 
L 118.628536 199.780081 
L 121.648061 193.951471 
L 125.691896 188.747985 
L 130.645021 184.382459 
L 136.344029 181.020934 
L 142.591011 178.76203 
L 149.175674 177.630776 
L 155.890205 177.580636 
L 162.548323 178.505715 
L 168.995351 180.258816 
L 175.112635 182.671918 
L 180.818732 185.574468 
L 186.065697 188.807285 
L 190.833418 192.233168 
L 195.123368 195.739208 
L 198.952977 199.238298 
L 202.350278 202.66682 
L 205.350065 205.98077 
L 207.990592 209.151825 
L 210.311396 212.163719 
L 214.149597 217.688199 
L 217.158409 222.55816 
L 224.497679 235.210847 
L 226.389132 237.78221 
L 228.42092 239.94767 
L 229.520745 240.880583 
L 230.692172 241.712931 
L 231.946469 242.442619 
L 233.294694 243.066449 
L 234.747956 243.580187 
L 236.317252 243.978177 
L 238.013515 244.253595 
L 239.847864 244.398128 
L 241.831155 244.402008 
L 243.974034 244.253787 
L 246.286759 243.94084 
L 248.778892 243.44899 
L 251.458742 242.7619 
L 254.332878 241.862991 
L 257.405503 240.733437 
L 260.677516 239.3543 
L 264.145362 237.706318 
L 267.799731 235.770895 
L 271.623714 233.531768 
L 275.591524 230.975787 
L 279.666292 228.096257 
L 283.79702 224.894055 
L 287.918175 221.382597 
L 291.946819 217.590191 
L 295.782076 213.564533 
L 299.303973 209.376004 
L 302.377254 205.120558 
L 304.852419 200.921461 
L 306.575783 196.926744 
L 307.397779 193.30336 
L 307.185394 190.227607 
L 305.838683 187.86913 
L 303.305437 186.370969 
L 299.592992 185.830997 
L 294.778126 186.282059 
L 289.00157 187.684351 
L 282.463119 189.924429 
L 275.396955 192.829788 
L 268.052629 196.192922 
L 260.667459 199.797586 
L 240.129233 210.298389 
L 209.771566 225.830489 
L 204.972859 228.693943 
L 201.22976 231.335017 
L 198.21328 233.883609 
L 195.648957 236.39976 
L 188.635637 243.759376 
L 186.020666 246.059607 
L 183.072259 248.213443 
L 181.442642 249.218573 
L 179.694464 250.165087 
L 177.817269 251.043805 
L 175.801347 251.843558 
L 173.637824 252.552218 
L 171.318938 253.155065 
L 168.838396 253.635284 
L 166.191953 253.973917 
L 163.377896 254.147962 
L 160.397709 254.132714 
L 157.257487 253.898748 
L 153.968566 253.413969 
L 150.549094 252.643012 
L 147.025179 251.547839 
L 143.432885 250.088954 
L 139.819239 248.226692 
L 136.243742 245.923422 
L 132.779882 243.146844 
L 129.514097 239.875123 
L 126.545689 236.099089 
L 123.984955 231.831056 
L 121.948422 227.108364 
L 120.551429 221.998619 
L 119.903022 216.603678 
L 120.093974 211.059376 
L 121.186696 205.531374 
L 123.207647 200.207823 
L 126.139155 195.284142 
L 129.919033 190.949031 
L 134.44054 187.363807 
L 139.563619 184.648657 
L 145.124745 182.871262 
L 150.951241 182.042088 
L 156.875567 182.118234 
L 162.746942 183.012955 
L 168.438928 184.609249 
L 173.852722 186.77352 
L 178.918921 189.370288 
L 183.59402 192.271774 
L 187.857082 195.365997 
L 191.705109 198.558244 
L 195.148806 201.773699 
L 198.208311 204.955789 
L 200.910355 208.063462 
L 203.285214 211.068538 
L 205.364979 213.953327 
L 207.182035 216.707982 
L 210.153126 221.815865 
L 212.431877 226.400949 
L 214.21905 230.503252 
L 219.340561 243.016706 
L 220.62327 245.349222 
L 222.059218 247.402058 
L 223.714242 249.175417 
L 225.655812 250.658851 
L 226.756423 251.285299 
L 227.956497 251.828987 
L 229.26632 252.285479 
L 230.696934 252.647751 
L 232.259977 252.908519 
L 233.967871 253.058742 
L 235.833722 253.087819 
L 237.871188 252.983988 
L 240.094583 252.732926 
L 242.518408 252.318708 
L 245.157368 251.722762 
L 248.025821 250.925055 
L 251.137202 249.902099 
L 254.503382 248.628689 
L 258.133262 247.077337 
L 262.032537 245.218568 
L 266.200713 243.021408 
L 270.629565 240.456266 
L 275.30119 237.493492 
L 280.183928 234.109621 
L 285.229579 230.287837 
L 290.369482 226.024165 
L 295.510073 221.332287 
L 300.530087 216.251456 
L 305.278299 210.8527 
L 309.570407 205.246714 
L 313.196253 199.590431 
L 315.921806 194.087772 
L 317.507935 188.987388 
L 317.725723 184.568622 
L 316.386559 181.117876 
L 313.368529 178.89439 
L 308.648383 178.088437 
L 302.318347 178.78071 
L 294.591353 180.915979 
L 285.782038 184.298438 
L 276.272872 188.618669 
L 266.464491 193.502467 
L 230.563132 212.093563 
L 223.315978 215.554301 
L 216.860927 218.454556 
L 211.161887 220.850158 
L 201.782884 224.440721 
L 182.789889 231.26537 
L 176.37352 234.078108 
L 172.009334 235.887771 
L 169.043602 236.850739 
L 165.939893 237.533942 
L 162.66433 237.854501 
L 160.962102 237.852046 
L 159.222385 237.726217 
L 157.452487 237.466344 
L 155.662245 237.06211 
L 153.864889 236.503218 
L 152.076582 235.781089 
L 150.316535 234.888458 
L 148.607083 233.820106 
L 146.973182 232.573626 
L 145.442737 231.150068 
L 144.044433 229.554782 
L 142.810341 227.798374 
L 141.771198 225.896228 
L 140.957604 223.870534 
L 140.398214 221.749344 
L 140.11753 219.566372 
L 140.135911 217.361663 
L 140.466918 215.179023 
L 141.115902 213.065078 
L 142.081179 211.068349 
L 143.350596 209.234994 
L 144.904321 207.608652 
L 146.714386 206.227277 
L 148.745675 205.120291 
L 150.957095 204.3095 
L 153.305395 203.806227 
L 155.745011 203.612563 
L 158.230961 203.721038 
L 160.72056 204.116376 
L 163.174073 204.777274 
L 165.556742 205.6768 
L 167.838697 206.785919 
L 169.995423 208.073554 
L 172.00761 209.509085 
L 173.860924 211.063072 
L 175.545487 212.70799 
L 177.055184 214.419074 
L 178.387364 216.174077 
L 179.541737 217.954197 
L 180.520239 219.742643 
L 181.326127 221.526119 
L 181.96373 223.292931 
L 182.437892 225.03396 
L 182.753669 226.741584 
L 182.91608 228.409873 
L 182.929835 230.033684 
L 182.799184 231.609102 
L 182.527776 233.13256 
L 182.118598 234.601201 
L 181.574032 236.01209 
L 180.895555 237.362312 
L 180.084147 238.648642 
L 179.140095 239.868172 
L 178.063061 241.016581 
L 176.852321 242.089143 
L 175.506891 243.080801 
L 174.025528 243.984454 
L 172.407229 244.793135 
L 170.651205 245.49715 
L 168.757341 246.086241 
L 166.726641 246.548353 
L 164.561507 246.869031 
L 162.266152 247.032762 
L 159.847672 247.021584 
L 157.315921 246.816559 
L 154.68528 246.395468 
L 151.974228 245.737046 
L 149.207161 244.817459 
L 146.414459 243.614044 
L 143.633947 242.105438 
L 140.910165 240.272955 
L 138.295371 238.1031 
L 135.849889 235.589677 
L 133.639353 232.735727 
L 131.734603 229.557309 
L 130.20796 226.085854 
L 129.130581 222.36928 
L 128.568417 218.474537 
L 128.575478 214.485485 
L 129.192241 210.502414 
L 130.436974 206.636912 
L 132.306141 203.005287 
L 134.77031 199.722356 
L 137.777081 196.890765 
L 141.250604 194.59575 
L 145.099552 192.896104 
L 149.222491 191.823149 
L 153.513329 191.377545 
L 157.87045 191.533339 
L 162.199855 192.241336 
L 166.419933 193.436118 
L 170.464803 195.04307 
L 174.28338 196.983688 
L 177.839757 199.181729 
L 181.111603 201.56635 
L 184.087944 204.075278 
L 186.767433 206.655819 
L 189.155867 209.264945 
L 191.264434 211.868132 
L 193.107968 214.43968 
L 194.703674 216.960126 
L 196.069838 219.416054 
L 197.225042 221.799099 
L 198.187571 224.103935 
L 198.974732 226.328546 
L 199.602746 228.471999 
L 200.438735 232.523498 
L 200.794767 236.279589 
L 200.744366 239.769035 
L 200.336503 243.022567 
L 199.597495 246.069204 
L 198.533328 248.934354 
L 197.131355 251.638946 
L 195.361608 254.197635 
L 193.177502 256.618469 
L 191.911023 257.777098 
L 190.516078 258.899664 
L 188.982259 259.98392 
L 187.298204 261.026404 
L 185.451543 262.022224 
L 183.429151 262.964911 
L 181.217098 263.845903 
L 178.800935 264.654165 
L 176.166021 265.375506 
L 173.297778 265.992803 
L 170.182519 266.483783 
L 166.808021 266.821429 
L 163.164511 266.973318 
L 159.246385 266.899621 
L 155.053584 266.553035 
L 150.594516 265.877676 
L 145.887538 264.809872 
L 140.965984 263.276188 
L 135.881071 261.195954 
L 130.705515 258.484372 
L 125.539494 255.054858 
L 120.512485 250.827161 
L 115.785535 245.737214 
L 111.553806 239.74961 
L 108.035895 232.873466 
L 105.469526 225.179471 
L 104.09006 216.815358 
L 104.109782 208.015379 
L 105.68676 199.098547 
L 108.899608 190.453055 
L 113.723828 182.501105 
L 120.022261 175.651605 
L 127.555237 170.245942 
L 136.004798 166.510556 
L 145.013969 164.527591 
L 154.228736 164.233406 
L 163.333794 165.43919 
L 172.078409 167.873555 
L 180.28302 171.227239 
L 187.838704 175.195628 
L 194.695496 179.508246 
L 200.848419 183.944285 
L 206.323877 188.337798 
L 211.16799 192.572925 
L 215.437728 196.575667 
L 222.501331 203.743859 
L 228.001318 209.749497 
L 235.991916 218.640506 
L 239.148153 221.780741 
L 242.078696 224.193133 
L 243.517568 225.150261 
L 244.964014 225.950415 
L 246.433512 226.598426 
L 247.939265 227.097884 
L 249.492087 227.450861 
L 251.100737 227.658551 
L 252.771715 227.721028 
L 254.509493 227.637654 
L 256.316227 227.407911 
L 258.191845 227.030123 
L 260.133789 226.502794 
L 262.136503 225.826054 
L 264.191653 224.999367 
L 266.287644 224.024618 
L 268.409364 222.904571 
L 270.537863 221.645138 
L 272.650273 220.254619 
L 274.719391 218.745282 
L 276.71389 217.133335 
L 278.598767 215.439728 
L 280.335731 213.689821 
L 281.883774 211.914555 
L 283.19934 210.149595 
L 284.240782 208.434662 
L 284.966209 206.811934 
L 285.338968 205.326202 
L 285.32847 204.021124 
L 284.911776 202.93719 
L 284.076895 202.109596 
L 282.825188 201.565235 
L 281.170598 201.321551 
L 279.139469 201.382869 
L 276.772322 201.742879 
L 274.12 202.382967 
L 271.240512 203.273955 
L 268.198222 204.380338 
L 261.883182 207.073293 
L 255.66072 210.135613 
L 249.916631 213.295282 
L 244.9037 216.374857 
L 240.74762 219.286969 
L 237.475864 222.008573 
L 236.161869 223.300477 
L 235.052303 224.549541 
L 234.137766 225.758006 
L 233.408405 226.927933 
L 232.854245 228.060465 
L 232.46578 229.156074 
L 232.23409 230.214584 
L 232.151185 231.234525 
L 232.210085 232.214342 
L 232.40496 233.151351 
L 232.731119 234.042121 
L 233.185092 234.882824 
L 233.764594 235.669166 
L 234.468397 236.395632 
L 235.296485 237.056683 
L 236.249821 237.646485 
L 237.330272 238.158014 
L 238.540625 238.584144 
L 239.884406 238.916382 
L 241.365621 239.146287 
L 242.988888 239.264219 
L 244.758967 239.259718 
L 246.680593 239.122093 
L 248.758314 238.839329 
L 250.995907 238.398453 
L 253.396239 237.785989 
L 255.960259 236.988644 
L 258.686693 235.992084 
L 261.57168 234.782025 
L 264.606818 233.34567 
L 267.778963 231.671461 
L 271.068771 229.750239 
L 274.449762 227.576706 
L 277.886434 225.151171 
L 281.333799 222.481201 
L 284.734596 219.584047 
L 288.021091 216.488762 
L 291.113456 213.237335 
L 293.919271 209.888771 
L 296.33885 206.518179 
L 298.263728 203.21716 
L 299.587182 200.092517 
L 300.206285 197.259951 
L 300.033523 194.839105 
L 299.003191 192.942734 
L 297.082317 191.665911 
L 294.277111 191.075074 
L 290.636463 191.197516 
L 286.251693 192.017246 
L 281.251067 193.472467 
L 275.78995 195.464961 
L 270.038036 197.869543 
L 264.163046 200.549197 
L 252.648273 206.219593 
L 242.192931 211.651828 
L 233.297346 216.434217 
L 226.079833 220.509107 
L 220.417773 224.012479 
L 216.07403 227.132152 
L 214.312425 228.600368 
L 212.780131 230.029432 
L 210.281161 232.813973 
L 208.354937 235.546584 
L 206.816977 238.25279 
L 204.919695 242.267386 
L 201.962854 248.763521 
L 200.614492 251.264065 
L 199.067787 253.697265 
L 197.254964 256.057147 
L 195.103739 258.336757 
L 192.533783 260.526018 
L 189.453828 262.606667 
L 187.690574 263.597108 
L 185.759713 264.547259 
L 183.646087 265.449397 
L 181.333965 266.294108 
L 178.806952 267.068987 
L 176.048498 267.759091 
L 173.042187 268.344654 
L 169.772511 268.801818 
L 166.225423 269.101055 
L 162.389828 269.206426 
L 158.259184 269.073393 
L 153.8331 268.650127 
L 149.12008 267.874398 
L 144.141525 266.673748 
L 138.934014 264.966776 
L 133.555261 262.662633 
L 128.088231 259.664925 
L 122.646744 255.877335 
L 117.378074 251.21053 
L 112.467768 245.59512 
L 108.13564 238.996509 
L 104.631741 231.435128 
L 102.22035 223.004736 
L 101.161859 213.89049 
L 101.679778 204.378693 
L 103.929638 194.850287 
L 107.966432 185.756788 
L 113.721608 177.574856 
L 120.999776 170.745216 
L 129.495861 165.61077 
L 138.830028 162.365419 
L 148.598987 161.031789 
L 158.422595 161.470627 
L 167.980618 163.417987 
L 177.032812 166.538283 
L 185.423604 170.478377 
L 193.070408 174.910506 
L 199.950051 179.558796 
L 206.080696 184.211268 
L 211.507276 188.716223 
L 216.289638 192.97655 
L 220.494554 196.936219 
L 227.442748 203.873605 
L 239.077707 215.928088 
L 242.43808 219.027865 
L 245.474384 221.348724 
L 246.931907 222.247529 
L 248.374674 222.984728 
L 249.818053 223.567369 
L 251.274713 224.001518 
L 252.754629 224.291703 
L 254.265312 224.441717 
L 255.811898 224.454707 
L 257.397107 224.332456 
L 259.021135 224.077803 
L 260.681944 223.692569 
L 262.374957 223.179447 
L 265.826469 221.782495 
L 269.285433 219.926747 
L 272.61732 217.679381 
L 275.644514 215.145772 
L 276.97845 213.817171 
L 278.154155 212.477405 
L 279.142842 211.15268 
L 279.915399 209.87107 
L 280.445472 208.661688 
L 280.709052 207.554623 
L 280.687214 206.578998 
L 280.366453 205.761059 
L 279.740152 205.124101 
L 278.810207 204.686111 
L 277.585442 204.458814 
L 276.084607 204.44741 
L 274.333797 204.649754 
L 272.365158 205.056524 
L 270.217283 205.652499 
L 265.554289 207.326414 
L 260.694375 209.475265 
L 255.96138 211.895022 
L 251.615339 214.414922 
L 247.834744 216.913146 
L 244.71986 219.318429 
L 242.30807 221.594473 
L 240.593755 223.725561 
L 239.989286 224.734119 
L 239.546806 225.702985 
L 239.261176 226.631051 
L 239.127293 227.516023 
L 239.140332 228.355837 
L 239.295917 229.147256 
L 239.590229 229.887207 
L 240.020126 230.571223 
L 240.583075 231.195238 
L 241.277339 231.75349 
L 242.101649 232.241018 
L 243.055454 232.651186 
L 244.138635 232.977805 
L 245.351486 233.213191 
L 246.694437 233.350277 
L 248.168103 233.38095 
L 249.772812 233.29643 
L 251.508565 233.088268 
L 253.374573 232.747426 
L 255.369071 232.264885 
L 257.488751 231.631208 
L 259.728186 230.838341 
L 262.079765 229.878254 
L 264.532734 228.74422 
L 267.072333 227.431405 
L 269.679767 225.937343 
L 272.331277 224.262984 
L 274.996907 222.413538 
L 277.640673 220.399636 
L 280.220659 218.237854 
L 282.687291 215.952474 
L 284.985363 213.576395 
L 287.05399 211.151068 
L 288.828008 208.726614 
L 290.240835 206.361892 
L 291.226635 204.122597 
L 291.725042 202.078363 
L 291.684139 200.299088 
L 291.065568 198.850595 
L 289.849064 197.789891 
L 288.035784 197.158819 
L 285.648854 196.980365 
L 282.73493 197.256577 
L 279.363241 197.9662 
L 275.618222 199.067213 
L 271.59801 200.501757 
L 267.4039 202.200205 
L 263.137107 204.089373 
L 254.749862 208.161521 
L 247.032335 212.256629 
L 240.344821 216.103574 
L 234.829914 219.608544 
L 230.473807 222.791435 
L 228.699675 224.282941 
L 227.172116 225.720472 
L 225.872495 227.112461 
L 224.781889 228.466408 
L 223.881959 229.78809 
L 223.155304 231.081667 
L 222.585889 232.350103 
L 222.159081 233.594724 
L 221.683272 236.014688 
L 221.644236 238.334532 
L 221.984009 240.538743 
L 222.668505 242.60528 
L 223.684795 244.508289 
L 225.039271 246.218112 
L 226.755731 247.700773 
L 227.76163 248.344729 
L 228.874325 248.916339 
L 230.101207 249.408866 
L 231.450713 249.815148 
L 232.931992 250.126849 
L 234.555268 250.334942 
L 236.331411 250.429064 
L 238.272004 250.39712 
L 240.389232 250.225734 
L 242.695663 249.899835 
L 245.203865 249.402644 
L 247.926153 248.715023 
L 250.874013 247.816447 
L 254.057368 246.683758 
L 257.48381 245.292462 
L 261.157428 243.616496 
L 265.07724 241.628608 
L 269.235382 239.302052 
L 273.615107 236.612541 
L 278.188163 233.538337 
L 282.911721 230.06527 
L 287.72563 226.18987 
L 292.547487 221.923487 
L 297.272836 217.298687 
L 301.769727 212.375073 
L 305.880517 207.244689 
L 309.421462 202.038396 
L 312.191609 196.926846 
L 313.979432 192.118934 
L 314.581616 187.851774 
L 313.821872 184.374303 
L 311.576093 181.920104 
L 307.796332 180.674395 
L 302.528351 180.741745 
L 295.920932 182.119005 
L 288.216692 184.685273 
L 279.727606 188.214988 
L 270.799581 192.409713 
L 261.771 196.946496 
L 236.725913 209.903072 
L 229.594675 213.45097 
L 217.466753 219.12986 
L 207.991454 223.211214 
L 195.094055 228.599964 
L 190.676457 230.679575 
L 187.057431 232.622299 
L 182.448923 235.411233 
L 178.141263 238.019244 
L 175.165356 239.578003 
L 171.976195 240.912343 
L 168.50144 241.939694 
L 166.643518 242.30875 
L 164.702597 242.564083 
L 162.679473 242.691909 
L 160.577869 242.676726 
L 158.404946 242.503293 
L 156.170876 242.155213 
L 153.889746 241.616078 
L 151.580058 240.86937 
L 149.264849 239.900191 
L 146.972055 238.694175 
L 144.734702 237.24047 
L 142.589817 235.531595 
L 140.581699 233.565541 
L 138.754819 231.346898 
L 137.159727 228.888661 
L 135.84665 226.214028 
L 134.864032 223.355942 
L 134.257949 220.359746 
L 134.068615 217.281238 
L 134.32502 214.186498 
L 135.045944 211.14938 
L 136.234783 208.248268 
L 137.880445 205.561902 
L 139.955172 203.164311 
L 142.416152 201.120718 
L 145.208874 199.484003 
L 148.267518 198.289549 
L 151.522035 197.555447 
L 154.8993 197.281393 
L 158.328031 197.450737 
L 161.742472 198.032482 
L 165.083961 198.985363 
L 168.302911 200.260909 
L 171.359471 201.807568 
L 174.223229 203.573974 
L 176.872993 205.511049 
L 179.29548 207.573452 
L 181.484255 209.721441 
L 183.438532 211.92109 
L 185.161815 214.143631 
L 186.660898 216.36642 
L 187.944827 218.571218 
L 189.023915 220.743592 
L 189.909249 222.873465 
L 190.612095 224.953352 
L 191.143258 226.978069 
L 191.512962 228.944537 
L 191.730542 230.850878 
L 191.804215 232.696696 
L 191.740989 234.481826 
L 191.546617 236.206724 
L 191.22561 237.872618 
L 190.781129 239.480586 
L 190.215062 241.031163 
L 189.528045 242.524887 
L 188.719553 243.962625 
L 187.787903 245.344051 
L 186.730242 246.668383 
L 185.542876 247.934275 
L 184.221063 249.139125 
L 182.759248 250.279627 
L 181.151271 251.351379 
L 179.390384 252.347981 
L 177.469577 253.261939 
L 175.381711 254.083316 
L 173.11987 254.800117 
L 170.677877 255.398055 
L 168.050695 255.859424 
L 165.235338 256.163161 
L 162.230858 256.285134 
L 159.04066 256.196743 
L 159.04066 256.196743 
" clip-path="url(#pcada55e858)" style="fill: none; stroke: #1f77b4; stroke-width: 1.5; stroke-linecap: square"/>
   </g>
  </g>
 </g>
 <defs>
  <clipPath id="pcada55e858">
   <rect x="55.08" y="51.84" width="332.64" height="332.64"/>
  </clipPath>
 </defs>
</svg>
